<mxfile host="app.diagrams.net" modified="2024-03-23T07:23:32.639Z" agent="Mozilla/5.0 (Windows NT 10.0; Win64; x64) AppleWebKit/537.36 (KHTML, like Gecko) Chrome/123.0.0.0 Safari/537.36" etag="bRiyen5EP0bT4Jkx6ghj" version="24.0.8" type="github">
  <diagram name="Page-1" id="J78H1yWdMGA6dcJvO-is">
    <mxGraphModel dx="3475" dy="2405" grid="1" gridSize="10" guides="1" tooltips="1" connect="1" arrows="1" fold="1" page="1" pageScale="1" pageWidth="850" pageHeight="1100" math="0" shadow="0">
      <root>
        <mxCell id="0" />
        <mxCell id="1" parent="0" />
        <mxCell id="VAm5EBniyMLqkMirTQOu-1" value="order&lt;br&gt;" style="whiteSpace=wrap;html=1;align=center;fillColor=#d80073;fontColor=#ffffff;strokeColor=#A50040;" parent="1" vertex="1">
          <mxGeometry x="690" y="70" width="100" height="40" as="geometry" />
        </mxCell>
        <mxCell id="VAm5EBniyMLqkMirTQOu-2" value="shippingAddress&lt;br&gt;" style="whiteSpace=wrap;html=1;align=center;fillColor=#d80073;fontColor=#ffffff;strokeColor=#A50040;" parent="1" vertex="1">
          <mxGeometry x="690" y="400" width="100" height="40" as="geometry" />
        </mxCell>
        <mxCell id="VAm5EBniyMLqkMirTQOu-3" value="order detail&lt;br&gt;" style="whiteSpace=wrap;html=1;align=center;fillColor=#d80073;fontColor=#ffffff;strokeColor=#A50040;" parent="1" vertex="1">
          <mxGeometry x="1000" y="-160" width="90" height="40" as="geometry" />
        </mxCell>
        <mxCell id="VAm5EBniyMLqkMirTQOu-4" value="customer" style="whiteSpace=wrap;html=1;align=center;fillColor=#d80073;fontColor=#ffffff;strokeColor=#A50040;" parent="1" vertex="1">
          <mxGeometry x="-300" y="70" width="110" height="40" as="geometry" />
        </mxCell>
        <mxCell id="VAm5EBniyMLqkMirTQOu-5" value="employee&lt;br&gt;" style="whiteSpace=wrap;html=1;align=center;fillColor=#d80073;fontColor=#ffffff;strokeColor=#A50040;" parent="1" vertex="1">
          <mxGeometry x="340" y="-160" width="100" height="40" as="geometry" />
        </mxCell>
        <mxCell id="VAm5EBniyMLqkMirTQOu-6" value="paymentMethod&lt;br&gt;" style="whiteSpace=wrap;html=1;align=center;fillColor=#d80073;fontColor=#ffffff;strokeColor=#A50040;" parent="1" vertex="1">
          <mxGeometry x="390" y="80" width="100" height="40" as="geometry" />
        </mxCell>
        <mxCell id="VAm5EBniyMLqkMirTQOu-7" value="product&lt;br&gt;" style="whiteSpace=wrap;html=1;align=center;fillColor=#6a00ff;fontColor=#ffffff;strokeColor=#3700CC;" parent="1" vertex="1">
          <mxGeometry x="750" y="-240" width="100" height="40" as="geometry" />
        </mxCell>
        <mxCell id="VAm5EBniyMLqkMirTQOu-8" value="id" style="ellipse;whiteSpace=wrap;html=1;align=center;fontStyle=4;fillColor=#1ba1e2;fontColor=#ffffff;strokeColor=#006EAF;" parent="1" vertex="1">
          <mxGeometry x="-520" y="80" width="60" height="40" as="geometry" />
        </mxCell>
        <mxCell id="VAm5EBniyMLqkMirTQOu-9" value="phoneNum" style="ellipse;whiteSpace=wrap;html=1;align=center;fillColor=#1ba1e2;fontColor=#ffffff;strokeColor=#006EAF;" parent="1" vertex="1">
          <mxGeometry x="-390" y="-230" width="100" height="40" as="geometry" />
        </mxCell>
        <mxCell id="VAm5EBniyMLqkMirTQOu-10" value="name" style="ellipse;whiteSpace=wrap;html=1;align=center;fillColor=#1ba1e2;fontColor=#ffffff;strokeColor=#006EAF;" parent="1" vertex="1">
          <mxGeometry x="-500" y="-60" width="100" height="40" as="geometry" />
        </mxCell>
        <mxCell id="VAm5EBniyMLqkMirTQOu-11" value="email" style="ellipse;whiteSpace=wrap;html=1;align=center;fillColor=#1ba1e2;fontColor=#ffffff;strokeColor=#006EAF;" parent="1" vertex="1">
          <mxGeometry x="-460" y="-142" width="100" height="40" as="geometry" />
        </mxCell>
        <mxCell id="VAm5EBniyMLqkMirTQOu-13" value="address" style="ellipse;whiteSpace=wrap;html=1;align=center;fillColor=#1ba1e2;fontColor=#ffffff;strokeColor=#006EAF;" parent="1" vertex="1">
          <mxGeometry x="-280" y="-250" width="100" height="40" as="geometry" />
        </mxCell>
        <mxCell id="VAm5EBniyMLqkMirTQOu-14" value="" style="endArrow=none;html=1;rounded=0;exitX=0.365;exitY=0.001;exitDx=0;exitDy=0;exitPerimeter=0;" parent="1" source="VAm5EBniyMLqkMirTQOu-4" target="VAm5EBniyMLqkMirTQOu-13" edge="1">
          <mxGeometry relative="1" as="geometry">
            <mxPoint x="340" y="-150" as="sourcePoint" />
            <mxPoint x="500" y="-130.48" as="targetPoint" />
          </mxGeometry>
        </mxCell>
        <mxCell id="VAm5EBniyMLqkMirTQOu-15" value="" style="endArrow=none;html=1;rounded=0;exitX=0.327;exitY=0.001;exitDx=0;exitDy=0;exitPerimeter=0;" parent="1" source="VAm5EBniyMLqkMirTQOu-4" target="VAm5EBniyMLqkMirTQOu-9" edge="1">
          <mxGeometry relative="1" as="geometry">
            <mxPoint x="300" y="-110" as="sourcePoint" />
            <mxPoint x="460" y="-110" as="targetPoint" />
          </mxGeometry>
        </mxCell>
        <mxCell id="VAm5EBniyMLqkMirTQOu-16" value="" style="endArrow=none;html=1;rounded=0;exitX=0.342;exitY=0.039;exitDx=0;exitDy=0;exitPerimeter=0;" parent="1" source="VAm5EBniyMLqkMirTQOu-4" target="VAm5EBniyMLqkMirTQOu-11" edge="1">
          <mxGeometry relative="1" as="geometry">
            <mxPoint x="300" y="-110" as="sourcePoint" />
            <mxPoint x="460" y="-110" as="targetPoint" />
          </mxGeometry>
        </mxCell>
        <mxCell id="VAm5EBniyMLqkMirTQOu-17" value="" style="endArrow=none;html=1;rounded=0;exitX=1;exitY=0.5;exitDx=0;exitDy=0;" parent="1" source="VAm5EBniyMLqkMirTQOu-8" target="VAm5EBniyMLqkMirTQOu-4" edge="1">
          <mxGeometry relative="1" as="geometry">
            <mxPoint x="110" y="-80" as="sourcePoint" />
            <mxPoint x="270" y="-80" as="targetPoint" />
          </mxGeometry>
        </mxCell>
        <mxCell id="VAm5EBniyMLqkMirTQOu-18" value="" style="endArrow=none;html=1;rounded=0;entryX=0.25;entryY=0;entryDx=0;entryDy=0;" parent="1" source="VAm5EBniyMLqkMirTQOu-10" target="VAm5EBniyMLqkMirTQOu-4" edge="1">
          <mxGeometry relative="1" as="geometry">
            <mxPoint x="180" y="-210" as="sourcePoint" />
            <mxPoint x="340" y="-210" as="targetPoint" />
          </mxGeometry>
        </mxCell>
        <mxCell id="VAm5EBniyMLqkMirTQOu-19" value="idProduct" style="ellipse;whiteSpace=wrap;html=1;align=center;fontStyle=4;fillColor=#1ba1e2;fontColor=#ffffff;strokeColor=#006EAF;" parent="1" vertex="1">
          <mxGeometry x="910" y="-310" width="100" height="40" as="geometry" />
        </mxCell>
        <mxCell id="VAm5EBniyMLqkMirTQOu-20" value="price" style="ellipse;whiteSpace=wrap;html=1;align=center;fillColor=#1ba1e2;fontColor=#ffffff;strokeColor=#006EAF;" parent="1" vertex="1">
          <mxGeometry x="860" y="-400" width="100" height="40" as="geometry" />
        </mxCell>
        <mxCell id="VAm5EBniyMLqkMirTQOu-21" value="productLeft" style="ellipse;whiteSpace=wrap;html=1;align=center;fillColor=#1ba1e2;fontColor=#ffffff;strokeColor=#006EAF;" parent="1" vertex="1">
          <mxGeometry x="590" y="-400" width="100" height="40" as="geometry" />
        </mxCell>
        <mxCell id="VAm5EBniyMLqkMirTQOu-22" value="name" style="ellipse;whiteSpace=wrap;html=1;align=center;fillColor=#1ba1e2;fontColor=#ffffff;strokeColor=#006EAF;" parent="1" vertex="1">
          <mxGeometry x="550" y="-310" width="100" height="40" as="geometry" />
        </mxCell>
        <mxCell id="VAm5EBniyMLqkMirTQOu-23" value="description" style="ellipse;whiteSpace=wrap;html=1;align=center;fillColor=#1ba1e2;fontColor=#ffffff;strokeColor=#006EAF;" parent="1" vertex="1">
          <mxGeometry x="740" y="-420" width="100" height="40" as="geometry" />
        </mxCell>
        <mxCell id="VAm5EBniyMLqkMirTQOu-25" value="" style="endArrow=none;html=1;rounded=0;" parent="1" source="VAm5EBniyMLqkMirTQOu-22" target="VAm5EBniyMLqkMirTQOu-7" edge="1">
          <mxGeometry relative="1" as="geometry">
            <mxPoint x="680" y="-100" as="sourcePoint" />
            <mxPoint x="840" y="-100" as="targetPoint" />
          </mxGeometry>
        </mxCell>
        <mxCell id="VAm5EBniyMLqkMirTQOu-26" value="" style="endArrow=none;html=1;rounded=0;" parent="1" source="VAm5EBniyMLqkMirTQOu-21" target="VAm5EBniyMLqkMirTQOu-7" edge="1">
          <mxGeometry relative="1" as="geometry">
            <mxPoint x="680" y="-220" as="sourcePoint" />
            <mxPoint x="840" y="-220" as="targetPoint" />
          </mxGeometry>
        </mxCell>
        <mxCell id="VAm5EBniyMLqkMirTQOu-27" value="" style="endArrow=none;html=1;rounded=0;entryX=0.25;entryY=0;entryDx=0;entryDy=0;" parent="1" source="VAm5EBniyMLqkMirTQOu-23" target="VAm5EBniyMLqkMirTQOu-7" edge="1">
          <mxGeometry relative="1" as="geometry">
            <mxPoint x="800" y="-230" as="sourcePoint" />
            <mxPoint x="960" y="-230" as="targetPoint" />
          </mxGeometry>
        </mxCell>
        <mxCell id="VAm5EBniyMLqkMirTQOu-28" value="" style="endArrow=none;html=1;rounded=0;exitX=0.25;exitY=0;exitDx=0;exitDy=0;" parent="1" source="VAm5EBniyMLqkMirTQOu-7" target="VAm5EBniyMLqkMirTQOu-20" edge="1">
          <mxGeometry relative="1" as="geometry">
            <mxPoint x="820" y="-230" as="sourcePoint" />
            <mxPoint x="980" y="-230" as="targetPoint" />
          </mxGeometry>
        </mxCell>
        <mxCell id="VAm5EBniyMLqkMirTQOu-30" value="" style="endArrow=none;html=1;rounded=0;exitX=1;exitY=0.5;exitDx=0;exitDy=0;entryX=0;entryY=0.5;entryDx=0;entryDy=0;" parent="1" source="VAm5EBniyMLqkMirTQOu-7" target="VAm5EBniyMLqkMirTQOu-19" edge="1">
          <mxGeometry relative="1" as="geometry">
            <mxPoint x="880" y="-80" as="sourcePoint" />
            <mxPoint x="1040" y="-80" as="targetPoint" />
          </mxGeometry>
        </mxCell>
        <mxCell id="VAm5EBniyMLqkMirTQOu-32" value="orderID" style="ellipse;whiteSpace=wrap;html=1;align=center;fontStyle=4;fillColor=#1ba1e2;fontColor=#ffffff;strokeColor=#006EAF;" parent="1" vertex="1">
          <mxGeometry x="850" y="230" width="100" height="40" as="geometry" />
        </mxCell>
        <mxCell id="VAm5EBniyMLqkMirTQOu-33" value="date" style="ellipse;whiteSpace=wrap;html=1;align=center;fillColor=#1ba1e2;fontColor=#ffffff;strokeColor=#006EAF;" parent="1" vertex="1">
          <mxGeometry x="970" y="60" width="100" height="40" as="geometry" />
        </mxCell>
        <mxCell id="VAm5EBniyMLqkMirTQOu-34" value="status" style="ellipse;whiteSpace=wrap;html=1;align=center;fillColor=#1ba1e2;fontColor=#ffffff;strokeColor=#006EAF;" parent="1" vertex="1">
          <mxGeometry x="910" y="140" width="100" height="40" as="geometry" />
        </mxCell>
        <mxCell id="VAm5EBniyMLqkMirTQOu-35" value="totalPrice" style="ellipse;whiteSpace=wrap;html=1;align=center;fillColor=#1ba1e2;fontColor=#ffffff;strokeColor=#006EAF;" parent="1" vertex="1">
          <mxGeometry x="940" y="-20" width="100" height="40" as="geometry" />
        </mxCell>
        <mxCell id="VAm5EBniyMLqkMirTQOu-38" value="" style="endArrow=none;html=1;rounded=0;entryX=0.5;entryY=0;entryDx=0;entryDy=0;exitX=1;exitY=0.5;exitDx=0;exitDy=0;" parent="1" source="VAm5EBniyMLqkMirTQOu-1" target="VAm5EBniyMLqkMirTQOu-32" edge="1">
          <mxGeometry relative="1" as="geometry">
            <mxPoint x="420" y="200" as="sourcePoint" />
            <mxPoint x="580" y="200" as="targetPoint" />
          </mxGeometry>
        </mxCell>
        <mxCell id="VAm5EBniyMLqkMirTQOu-39" value="" style="endArrow=none;html=1;rounded=0;exitX=1;exitY=0.5;exitDx=0;exitDy=0;" parent="1" source="VAm5EBniyMLqkMirTQOu-1" target="VAm5EBniyMLqkMirTQOu-34" edge="1">
          <mxGeometry relative="1" as="geometry">
            <mxPoint x="500" y="60" as="sourcePoint" />
            <mxPoint x="660" y="60" as="targetPoint" />
          </mxGeometry>
        </mxCell>
        <mxCell id="VAm5EBniyMLqkMirTQOu-40" value="" style="endArrow=none;html=1;rounded=0;exitX=1;exitY=0.5;exitDx=0;exitDy=0;" parent="1" source="VAm5EBniyMLqkMirTQOu-1" target="VAm5EBniyMLqkMirTQOu-33" edge="1">
          <mxGeometry relative="1" as="geometry">
            <mxPoint x="500" y="60" as="sourcePoint" />
            <mxPoint x="660" y="60" as="targetPoint" />
          </mxGeometry>
        </mxCell>
        <mxCell id="VAm5EBniyMLqkMirTQOu-41" value="" style="endArrow=none;html=1;rounded=0;exitX=1;exitY=0.5;exitDx=0;exitDy=0;" parent="1" source="VAm5EBniyMLqkMirTQOu-1" target="VAm5EBniyMLqkMirTQOu-35" edge="1">
          <mxGeometry relative="1" as="geometry">
            <mxPoint x="500" y="60" as="sourcePoint" />
            <mxPoint x="660" y="60" as="targetPoint" />
          </mxGeometry>
        </mxCell>
        <mxCell id="VAm5EBniyMLqkMirTQOu-42" value="chưa xl" style="ellipse;whiteSpace=wrap;html=1;align=center;fillColor=#1ba1e2;fontColor=#ffffff;strokeColor=#006EAF;" parent="1" vertex="1">
          <mxGeometry x="1170" y="50" width="100" height="40" as="geometry" />
        </mxCell>
        <mxCell id="VAm5EBniyMLqkMirTQOu-43" value="canceled" style="ellipse;whiteSpace=wrap;html=1;align=center;fillColor=#1ba1e2;fontColor=#ffffff;strokeColor=#006EAF;" parent="1" vertex="1">
          <mxGeometry x="1120" y="270" width="100" height="40" as="geometry" />
        </mxCell>
        <mxCell id="VAm5EBniyMLqkMirTQOu-44" value="đã giao" style="ellipse;whiteSpace=wrap;html=1;align=center;fillColor=#1ba1e2;fontColor=#ffffff;strokeColor=#006EAF;" parent="1" vertex="1">
          <mxGeometry x="1175" y="170" width="100" height="40" as="geometry" />
        </mxCell>
        <mxCell id="VAm5EBniyMLqkMirTQOu-45" value="" style="endArrow=none;html=1;rounded=0;exitX=1;exitY=0.5;exitDx=0;exitDy=0;fillColor=#1ba1e2;strokeColor=#006EAF;" parent="1" source="VAm5EBniyMLqkMirTQOu-34" target="VAm5EBniyMLqkMirTQOu-42" edge="1">
          <mxGeometry relative="1" as="geometry">
            <mxPoint x="1040" y="140" as="sourcePoint" />
            <mxPoint x="1200" y="140" as="targetPoint" />
          </mxGeometry>
        </mxCell>
        <mxCell id="VAm5EBniyMLqkMirTQOu-46" value="" style="endArrow=none;html=1;rounded=0;exitX=1;exitY=0.5;exitDx=0;exitDy=0;entryX=0;entryY=0;entryDx=0;entryDy=0;fillColor=#1ba1e2;strokeColor=#006EAF;" parent="1" source="VAm5EBniyMLqkMirTQOu-34" target="VAm5EBniyMLqkMirTQOu-43" edge="1">
          <mxGeometry relative="1" as="geometry">
            <mxPoint x="960" y="230" as="sourcePoint" />
            <mxPoint x="1120" y="230" as="targetPoint" />
          </mxGeometry>
        </mxCell>
        <mxCell id="VAm5EBniyMLqkMirTQOu-47" value="" style="endArrow=none;html=1;rounded=0;exitX=1;exitY=0.5;exitDx=0;exitDy=0;entryX=0;entryY=0.5;entryDx=0;entryDy=0;fillColor=#1ba1e2;strokeColor=#006EAF;" parent="1" source="VAm5EBniyMLqkMirTQOu-34" target="VAm5EBniyMLqkMirTQOu-44" edge="1">
          <mxGeometry relative="1" as="geometry">
            <mxPoint x="980" y="210" as="sourcePoint" />
            <mxPoint x="1140" y="210" as="targetPoint" />
          </mxGeometry>
        </mxCell>
        <mxCell id="VAm5EBniyMLqkMirTQOu-49" value="paymentID" style="ellipse;whiteSpace=wrap;html=1;align=center;fontStyle=4;fillColor=#1ba1e2;fontColor=#ffffff;strokeColor=#006EAF;" parent="1" vertex="1">
          <mxGeometry x="270" y="140" width="100" height="40" as="geometry" />
        </mxCell>
        <mxCell id="VAm5EBniyMLqkMirTQOu-50" value="namePayment" style="ellipse;whiteSpace=wrap;html=1;align=center;fillColor=#1ba1e2;fontColor=#ffffff;strokeColor=#006EAF;" parent="1" vertex="1">
          <mxGeometry x="370" y="180" width="100" height="40" as="geometry" />
        </mxCell>
        <mxCell id="VAm5EBniyMLqkMirTQOu-51" value="" style="endArrow=none;html=1;rounded=0;" parent="1" source="VAm5EBniyMLqkMirTQOu-6" target="VAm5EBniyMLqkMirTQOu-50" edge="1">
          <mxGeometry relative="1" as="geometry">
            <mxPoint x="770" y="500" as="sourcePoint" />
            <mxPoint x="930" y="500" as="targetPoint" />
          </mxGeometry>
        </mxCell>
        <mxCell id="VAm5EBniyMLqkMirTQOu-52" value="" style="endArrow=none;html=1;rounded=0;" parent="1" source="VAm5EBniyMLqkMirTQOu-6" target="VAm5EBniyMLqkMirTQOu-49" edge="1">
          <mxGeometry relative="1" as="geometry">
            <mxPoint x="530" y="400" as="sourcePoint" />
            <mxPoint x="690" y="400" as="targetPoint" />
          </mxGeometry>
        </mxCell>
        <mxCell id="VAm5EBniyMLqkMirTQOu-53" value="cash" style="ellipse;whiteSpace=wrap;html=1;align=center;fillColor=#1ba1e2;fontColor=#ffffff;strokeColor=#006EAF;" parent="1" vertex="1">
          <mxGeometry x="365" y="290" width="100" height="40" as="geometry" />
        </mxCell>
        <mxCell id="VAm5EBniyMLqkMirTQOu-54" value="chuyển khoản" style="ellipse;whiteSpace=wrap;html=1;align=center;fillColor=#1ba1e2;fontColor=#ffffff;strokeColor=#006EAF;" parent="1" vertex="1">
          <mxGeometry x="290" y="240" width="100" height="40" as="geometry" />
        </mxCell>
        <mxCell id="VAm5EBniyMLqkMirTQOu-55" value="credit" style="ellipse;whiteSpace=wrap;html=1;align=center;fillColor=#1ba1e2;fontColor=#ffffff;strokeColor=#006EAF;" parent="1" vertex="1">
          <mxGeometry x="485" y="150" width="100" height="40" as="geometry" />
        </mxCell>
        <mxCell id="VAm5EBniyMLqkMirTQOu-56" value="" style="endArrow=none;html=1;rounded=0;fillColor=#1ba1e2;strokeColor=#006EAF;" parent="1" source="VAm5EBniyMLqkMirTQOu-50" target="VAm5EBniyMLqkMirTQOu-54" edge="1">
          <mxGeometry relative="1" as="geometry">
            <mxPoint x="880" y="490" as="sourcePoint" />
            <mxPoint x="1040" y="490" as="targetPoint" />
          </mxGeometry>
        </mxCell>
        <mxCell id="VAm5EBniyMLqkMirTQOu-57" value="" style="endArrow=none;html=1;rounded=0;fillColor=#1ba1e2;strokeColor=#006EAF;" parent="1" source="VAm5EBniyMLqkMirTQOu-50" target="VAm5EBniyMLqkMirTQOu-53" edge="1">
          <mxGeometry relative="1" as="geometry">
            <mxPoint x="880" y="490" as="sourcePoint" />
            <mxPoint x="1040" y="490" as="targetPoint" />
          </mxGeometry>
        </mxCell>
        <mxCell id="VAm5EBniyMLqkMirTQOu-58" value="" style="endArrow=none;html=1;rounded=0;fillColor=#1ba1e2;strokeColor=#006EAF;" parent="1" target="VAm5EBniyMLqkMirTQOu-55" edge="1" source="VAm5EBniyMLqkMirTQOu-6">
          <mxGeometry relative="1" as="geometry">
            <mxPoint x="940" y="550" as="sourcePoint" />
            <mxPoint x="1040" y="490" as="targetPoint" />
          </mxGeometry>
        </mxCell>
        <mxCell id="VAm5EBniyMLqkMirTQOu-59" value="name" style="ellipse;whiteSpace=wrap;html=1;align=center;fillColor=#1ba1e2;fontColor=#ffffff;strokeColor=#006EAF;" parent="1" vertex="1">
          <mxGeometry x="310" y="-370" width="100" height="40" as="geometry" />
        </mxCell>
        <mxCell id="VAm5EBniyMLqkMirTQOu-60" value="jobPosition" style="ellipse;whiteSpace=wrap;html=1;align=center;fillColor=#1ba1e2;fontColor=#ffffff;strokeColor=#006EAF;" parent="1" vertex="1">
          <mxGeometry x="430" y="-250" width="100" height="40" as="geometry" />
        </mxCell>
        <mxCell id="VAm5EBniyMLqkMirTQOu-61" value="phoneNum" style="ellipse;whiteSpace=wrap;html=1;align=center;fillColor=#1ba1e2;fontColor=#ffffff;strokeColor=#006EAF;" parent="1" vertex="1">
          <mxGeometry x="365" y="-310" width="100" height="40" as="geometry" />
        </mxCell>
        <mxCell id="VAm5EBniyMLqkMirTQOu-62" value="email" style="ellipse;whiteSpace=wrap;html=1;align=center;fillColor=#1ba1e2;fontColor=#ffffff;strokeColor=#006EAF;" parent="1" vertex="1">
          <mxGeometry x="225" y="-290" width="100" height="40" as="geometry" />
        </mxCell>
        <mxCell id="VAm5EBniyMLqkMirTQOu-63" value="" style="endArrow=none;html=1;rounded=0;" parent="1" source="VAm5EBniyMLqkMirTQOu-5" target="VAm5EBniyMLqkMirTQOu-62" edge="1">
          <mxGeometry relative="1" as="geometry">
            <mxPoint x="370" y="610" as="sourcePoint" />
            <mxPoint x="530" y="610" as="targetPoint" />
          </mxGeometry>
        </mxCell>
        <mxCell id="VAm5EBniyMLqkMirTQOu-64" value="" style="endArrow=none;html=1;rounded=0;" parent="1" source="VAm5EBniyMLqkMirTQOu-5" target="VAm5EBniyMLqkMirTQOu-61" edge="1">
          <mxGeometry relative="1" as="geometry">
            <mxPoint x="370" y="610" as="sourcePoint" />
            <mxPoint x="530" y="610" as="targetPoint" />
          </mxGeometry>
        </mxCell>
        <mxCell id="VAm5EBniyMLqkMirTQOu-65" value="" style="endArrow=none;html=1;rounded=0;" parent="1" source="VAm5EBniyMLqkMirTQOu-5" target="VAm5EBniyMLqkMirTQOu-60" edge="1">
          <mxGeometry relative="1" as="geometry">
            <mxPoint x="370" y="610" as="sourcePoint" />
            <mxPoint x="530" y="610" as="targetPoint" />
          </mxGeometry>
        </mxCell>
        <mxCell id="VAm5EBniyMLqkMirTQOu-66" value="" style="endArrow=none;html=1;rounded=0;" parent="1" source="VAm5EBniyMLqkMirTQOu-5" target="VAm5EBniyMLqkMirTQOu-59" edge="1">
          <mxGeometry relative="1" as="geometry">
            <mxPoint x="370" y="610" as="sourcePoint" />
            <mxPoint x="530" y="610" as="targetPoint" />
          </mxGeometry>
        </mxCell>
        <mxCell id="VAm5EBniyMLqkMirTQOu-70" value="address" style="ellipse;whiteSpace=wrap;html=1;align=center;fillColor=#1ba1e2;fontColor=#ffffff;strokeColor=#006EAF;" parent="1" vertex="1">
          <mxGeometry x="760" y="520" width="100" height="40" as="geometry" />
        </mxCell>
        <mxCell id="VAm5EBniyMLqkMirTQOu-72" value="id" style="ellipse;whiteSpace=wrap;html=1;align=center;fontStyle=4;fillColor=#1ba1e2;fontColor=#ffffff;strokeColor=#006EAF;" parent="1" vertex="1">
          <mxGeometry x="640" y="520" width="100" height="40" as="geometry" />
        </mxCell>
        <mxCell id="VAm5EBniyMLqkMirTQOu-74" value="" style="endArrow=none;html=1;rounded=0;entryX=0.5;entryY=1;entryDx=0;entryDy=0;" parent="1" source="VAm5EBniyMLqkMirTQOu-70" target="VAm5EBniyMLqkMirTQOu-2" edge="1">
          <mxGeometry relative="1" as="geometry">
            <mxPoint x="70" y="400" as="sourcePoint" />
            <mxPoint x="230" y="400" as="targetPoint" />
          </mxGeometry>
        </mxCell>
        <mxCell id="VAm5EBniyMLqkMirTQOu-80" value="chứa thông tin" style="shape=rhombus;perimeter=rhombusPerimeter;whiteSpace=wrap;html=1;align=center;fillColor=#60a917;fontColor=#ffffff;strokeColor=#2D7600;" parent="1" vertex="1">
          <mxGeometry x="720" y="-120" width="120" height="60" as="geometry" />
        </mxCell>
        <mxCell id="VAm5EBniyMLqkMirTQOu-81" value="" style="endArrow=none;html=1;rounded=0;entryX=0.5;entryY=1;entryDx=0;entryDy=0;" parent="1" source="VAm5EBniyMLqkMirTQOu-1" target="VAm5EBniyMLqkMirTQOu-80" edge="1">
          <mxGeometry relative="1" as="geometry">
            <mxPoint x="590" as="sourcePoint" />
            <mxPoint x="750" as="targetPoint" />
          </mxGeometry>
        </mxCell>
        <mxCell id="VAm5EBniyMLqkMirTQOu-82" value="" style="endArrow=none;html=1;rounded=0;exitX=0.5;exitY=0;exitDx=0;exitDy=0;" parent="1" source="VAm5EBniyMLqkMirTQOu-80" target="VAm5EBniyMLqkMirTQOu-7" edge="1">
          <mxGeometry relative="1" as="geometry">
            <mxPoint x="860" y="-150" as="sourcePoint" />
            <mxPoint x="1020" y="-150" as="targetPoint" />
          </mxGeometry>
        </mxCell>
        <mxCell id="VAm5EBniyMLqkMirTQOu-83" value="" style="endArrow=none;html=1;rounded=0;exitX=1;exitY=0.5;exitDx=0;exitDy=0;entryX=0;entryY=1;entryDx=0;entryDy=0;" parent="1" source="VAm5EBniyMLqkMirTQOu-80" target="VAm5EBniyMLqkMirTQOu-3" edge="1">
          <mxGeometry relative="1" as="geometry">
            <mxPoint x="850" y="-140.48000000000002" as="sourcePoint" />
            <mxPoint x="1010" y="-140.48000000000002" as="targetPoint" />
          </mxGeometry>
        </mxCell>
        <mxCell id="VAm5EBniyMLqkMirTQOu-84" value="priceBill" style="ellipse;whiteSpace=wrap;html=1;align=center;fillColor=#1ba1e2;fontColor=#ffffff;strokeColor=#006EAF;" parent="1" vertex="1">
          <mxGeometry x="1120" y="-100" width="100" height="40" as="geometry" />
        </mxCell>
        <mxCell id="VAm5EBniyMLqkMirTQOu-85" value="orderdetailID" style="ellipse;whiteSpace=wrap;html=1;align=center;fontStyle=4;fillColor=#1ba1e2;fontColor=#ffffff;strokeColor=#006EAF;" parent="1" vertex="1">
          <mxGeometry x="1160" y="-180" width="100" height="40" as="geometry" />
        </mxCell>
        <mxCell id="VAm5EBniyMLqkMirTQOu-86" value="numbproduct" style="ellipse;whiteSpace=wrap;html=1;align=center;fillColor=#1ba1e2;fontColor=#ffffff;strokeColor=#006EAF;" parent="1" vertex="1">
          <mxGeometry x="1180" y="-290" width="100" height="40" as="geometry" />
        </mxCell>
        <mxCell id="VAm5EBniyMLqkMirTQOu-87" value="" style="endArrow=none;html=1;rounded=0;entryX=0;entryY=0.5;entryDx=0;entryDy=0;exitX=1;exitY=0.25;exitDx=0;exitDy=0;" parent="1" source="VAm5EBniyMLqkMirTQOu-3" target="VAm5EBniyMLqkMirTQOu-86" edge="1">
          <mxGeometry relative="1" as="geometry">
            <mxPoint x="770" y="-40" as="sourcePoint" />
            <mxPoint x="930" y="-40" as="targetPoint" />
          </mxGeometry>
        </mxCell>
        <mxCell id="VAm5EBniyMLqkMirTQOu-88" value="" style="endArrow=none;html=1;rounded=0;entryX=-0.001;entryY=0.675;entryDx=0;entryDy=0;entryPerimeter=0;exitX=1;exitY=0.5;exitDx=0;exitDy=0;" parent="1" source="VAm5EBniyMLqkMirTQOu-3" target="VAm5EBniyMLqkMirTQOu-85" edge="1">
          <mxGeometry relative="1" as="geometry">
            <mxPoint x="770" y="-40" as="sourcePoint" />
            <mxPoint x="930" y="-40" as="targetPoint" />
          </mxGeometry>
        </mxCell>
        <mxCell id="VAm5EBniyMLqkMirTQOu-89" value="" style="endArrow=none;html=1;rounded=0;entryX=0;entryY=0.5;entryDx=0;entryDy=0;exitX=1;exitY=0.75;exitDx=0;exitDy=0;" parent="1" source="VAm5EBniyMLqkMirTQOu-3" target="VAm5EBniyMLqkMirTQOu-84" edge="1">
          <mxGeometry relative="1" as="geometry">
            <mxPoint x="770" y="-40" as="sourcePoint" />
            <mxPoint x="930" y="-40" as="targetPoint" />
          </mxGeometry>
        </mxCell>
        <mxCell id="VAm5EBniyMLqkMirTQOu-90" value="manage" style="shape=rhombus;perimeter=rhombusPerimeter;whiteSpace=wrap;html=1;align=center;fillColor=#60a917;fontColor=#ffffff;strokeColor=#2D7600;" parent="1" vertex="1">
          <mxGeometry x="455" y="-80" width="160" height="80" as="geometry" />
        </mxCell>
        <mxCell id="VAm5EBniyMLqkMirTQOu-91" value="" style="endArrow=none;html=1;rounded=0;exitX=1;exitY=0.75;exitDx=0;exitDy=0;" parent="1" source="VAm5EBniyMLqkMirTQOu-4" target="N0Mhtf19jp6nz9mz9Gu_-17" edge="1">
          <mxGeometry relative="1" as="geometry">
            <mxPoint x="210" y="-30" as="sourcePoint" />
            <mxPoint x="190" y="170" as="targetPoint" />
          </mxGeometry>
        </mxCell>
        <mxCell id="VAm5EBniyMLqkMirTQOu-92" value="" style="endArrow=none;html=1;rounded=0;exitX=1;exitY=0.5;exitDx=0;exitDy=0;fillColor=#008a00;strokeColor=#005700;" parent="1" source="VAm5EBniyMLqkMirTQOu-90" target="VAm5EBniyMLqkMirTQOu-1" edge="1">
          <mxGeometry relative="1" as="geometry">
            <mxPoint x="410" y="130" as="sourcePoint" />
            <mxPoint x="570" y="130" as="targetPoint" />
          </mxGeometry>
        </mxCell>
        <mxCell id="VAm5EBniyMLqkMirTQOu-93" value="(1,n)" style="text;html=1;align=center;verticalAlign=middle;resizable=0;points=[];autosize=1;strokeColor=#C73500;fillColor=#fa6800;fontColor=#000000;" parent="1" vertex="1">
          <mxGeometry x="-230" y="20" width="50" height="30" as="geometry" />
        </mxCell>
        <mxCell id="VAm5EBniyMLqkMirTQOu-94" value="(1,n)" style="text;html=1;align=center;verticalAlign=middle;resizable=0;points=[];autosize=1;strokeColor=none;fillColor=none;" parent="1" vertex="1">
          <mxGeometry x="665" y="30" width="50" height="30" as="geometry" />
        </mxCell>
        <mxCell id="VAm5EBniyMLqkMirTQOu-96" value="(1,n)" style="text;html=1;align=center;verticalAlign=middle;resizable=0;points=[];autosize=1;strokeColor=none;fillColor=none;" parent="1" vertex="1">
          <mxGeometry x="740" y="40" width="50" height="30" as="geometry" />
        </mxCell>
        <mxCell id="VAm5EBniyMLqkMirTQOu-97" value="(1,n)" style="text;html=1;align=center;verticalAlign=middle;resizable=0;points=[];autosize=1;strokeColor=none;fillColor=none;" parent="1" vertex="1">
          <mxGeometry x="940" y="-150" width="50" height="30" as="geometry" />
        </mxCell>
        <mxCell id="VAm5EBniyMLqkMirTQOu-98" value="pay" style="shape=rhombus;perimeter=rhombusPerimeter;whiteSpace=wrap;html=1;align=center;fillColor=#60a917;fontColor=#ffffff;strokeColor=#2D7600;" parent="1" vertex="1">
          <mxGeometry x="520" y="60" width="120" height="60" as="geometry" />
        </mxCell>
        <mxCell id="VAm5EBniyMLqkMirTQOu-100" value="" style="endArrow=none;html=1;rounded=0;" parent="1" source="VAm5EBniyMLqkMirTQOu-6" target="N0Mhtf19jp6nz9mz9Gu_-28" edge="1">
          <mxGeometry relative="1" as="geometry">
            <mxPoint x="660" y="320" as="sourcePoint" />
            <mxPoint x="820" y="320" as="targetPoint" />
          </mxGeometry>
        </mxCell>
        <mxCell id="VAm5EBniyMLqkMirTQOu-101" value="" style="endArrow=none;html=1;rounded=0;" parent="1" source="VAm5EBniyMLqkMirTQOu-98" target="VAm5EBniyMLqkMirTQOu-6" edge="1">
          <mxGeometry relative="1" as="geometry">
            <mxPoint x="640" y="340" as="sourcePoint" />
            <mxPoint x="800" y="340" as="targetPoint" />
          </mxGeometry>
        </mxCell>
        <mxCell id="VAm5EBniyMLqkMirTQOu-102" value="(1,n)" style="text;html=1;align=center;verticalAlign=middle;resizable=0;points=[];autosize=1;strokeColor=none;fillColor=none;" parent="1" vertex="1">
          <mxGeometry x="710" y="100" width="50" height="30" as="geometry" />
        </mxCell>
        <mxCell id="VAm5EBniyMLqkMirTQOu-104" value="giao" style="shape=rhombus;perimeter=rhombusPerimeter;whiteSpace=wrap;html=1;align=center;fillColor=#60a917;fontColor=#ffffff;strokeColor=#2D7600;" parent="1" vertex="1">
          <mxGeometry x="680" y="280" width="120" height="60" as="geometry" />
        </mxCell>
        <mxCell id="VAm5EBniyMLqkMirTQOu-105" value="" style="endArrow=none;html=1;rounded=0;" parent="1" source="VAm5EBniyMLqkMirTQOu-2" target="VAm5EBniyMLqkMirTQOu-104" edge="1">
          <mxGeometry relative="1" as="geometry">
            <mxPoint x="750" y="580" as="sourcePoint" />
            <mxPoint x="300" y="140" as="targetPoint" />
          </mxGeometry>
        </mxCell>
        <mxCell id="VAm5EBniyMLqkMirTQOu-106" value="" style="endArrow=none;html=1;rounded=0;" parent="1" source="VAm5EBniyMLqkMirTQOu-104" target="VAm5EBniyMLqkMirTQOu-1" edge="1">
          <mxGeometry relative="1" as="geometry">
            <mxPoint x="360" y="110" as="sourcePoint" />
            <mxPoint x="520" y="110" as="targetPoint" />
          </mxGeometry>
        </mxCell>
        <mxCell id="VAm5EBniyMLqkMirTQOu-108" value="(1,1)" style="text;html=1;align=center;verticalAlign=middle;resizable=0;points=[];autosize=1;strokeColor=none;fillColor=none;" parent="1" vertex="1">
          <mxGeometry x="250" y="280" width="50" height="30" as="geometry" />
        </mxCell>
        <mxCell id="VAm5EBniyMLqkMirTQOu-112" value="(1,1)" style="text;html=1;align=center;verticalAlign=middle;resizable=0;points=[];autosize=1;strokeColor=none;fillColor=none;" parent="1" vertex="1">
          <mxGeometry x="455" y="-150" width="50" height="30" as="geometry" />
        </mxCell>
        <mxCell id="VAm5EBniyMLqkMirTQOu-113" value="(1,1)" style="text;html=1;align=center;verticalAlign=middle;resizable=0;points=[];autosize=1;strokeColor=none;fillColor=none;" parent="1" vertex="1">
          <mxGeometry x="650" y="100" width="50" height="30" as="geometry" />
        </mxCell>
        <mxCell id="VAm5EBniyMLqkMirTQOu-115" value="(1,n)" style="text;html=1;align=center;verticalAlign=middle;resizable=0;points=[];autosize=1;strokeColor=none;fillColor=none;" parent="1" vertex="1">
          <mxGeometry x="785" y="-202" width="50" height="30" as="geometry" />
        </mxCell>
        <mxCell id="N0Mhtf19jp6nz9mz9Gu_-2" value="" style="endArrow=none;html=1;rounded=0;" edge="1" parent="1" source="VAm5EBniyMLqkMirTQOu-5" target="VAm5EBniyMLqkMirTQOu-90">
          <mxGeometry relative="1" as="geometry">
            <mxPoint x="380" y="100" as="sourcePoint" />
            <mxPoint x="540" y="100" as="targetPoint" />
          </mxGeometry>
        </mxCell>
        <mxCell id="N0Mhtf19jp6nz9mz9Gu_-8" value="manage" style="shape=rhombus;perimeter=rhombusPerimeter;whiteSpace=wrap;html=1;align=center;fillColor=#60a917;fontColor=#ffffff;strokeColor=#2D7600;" vertex="1" parent="1">
          <mxGeometry x="540" y="-202" width="120" height="60" as="geometry" />
        </mxCell>
        <mxCell id="N0Mhtf19jp6nz9mz9Gu_-9" value="" style="endArrow=none;html=1;rounded=0;" edge="1" parent="1" source="VAm5EBniyMLqkMirTQOu-5" target="N0Mhtf19jp6nz9mz9Gu_-8">
          <mxGeometry relative="1" as="geometry">
            <mxPoint x="470" y="-100" as="sourcePoint" />
            <mxPoint x="630" y="-100" as="targetPoint" />
          </mxGeometry>
        </mxCell>
        <mxCell id="N0Mhtf19jp6nz9mz9Gu_-14" value="" style="endArrow=none;html=1;rounded=0;" edge="1" parent="1" source="N0Mhtf19jp6nz9mz9Gu_-8" target="VAm5EBniyMLqkMirTQOu-7">
          <mxGeometry relative="1" as="geometry">
            <mxPoint x="550" y="-70" as="sourcePoint" />
            <mxPoint x="710" y="-70" as="targetPoint" />
          </mxGeometry>
        </mxCell>
        <mxCell id="N0Mhtf19jp6nz9mz9Gu_-15" value="" style="endArrow=none;html=1;rounded=0;" edge="1" parent="1" source="VAm5EBniyMLqkMirTQOu-72" target="VAm5EBniyMLqkMirTQOu-2">
          <mxGeometry relative="1" as="geometry">
            <mxPoint x="-150" y="280" as="sourcePoint" />
            <mxPoint x="10" y="280" as="targetPoint" />
          </mxGeometry>
        </mxCell>
        <mxCell id="N0Mhtf19jp6nz9mz9Gu_-16" value="Cart" style="whiteSpace=wrap;html=1;align=center;fillColor=#d80073;fontColor=#ffffff;strokeColor=#A50040;" vertex="1" parent="1">
          <mxGeometry x="40" y="80" width="100" height="40" as="geometry" />
        </mxCell>
        <mxCell id="N0Mhtf19jp6nz9mz9Gu_-17" value="add" style="shape=rhombus;perimeter=rhombusPerimeter;whiteSpace=wrap;html=1;align=center;fillColor=#60a917;fontColor=#ffffff;strokeColor=#2D7600;" vertex="1" parent="1">
          <mxGeometry x="-150" y="70" width="120" height="60" as="geometry" />
        </mxCell>
        <mxCell id="N0Mhtf19jp6nz9mz9Gu_-18" value="" style="endArrow=none;html=1;rounded=0;" edge="1" parent="1" source="N0Mhtf19jp6nz9mz9Gu_-17" target="N0Mhtf19jp6nz9mz9Gu_-16">
          <mxGeometry relative="1" as="geometry">
            <mxPoint x="310" y="30" as="sourcePoint" />
            <mxPoint x="470" y="30" as="targetPoint" />
          </mxGeometry>
        </mxCell>
        <mxCell id="N0Mhtf19jp6nz9mz9Gu_-19" value="id product" style="ellipse;whiteSpace=wrap;html=1;align=center;fontStyle=4;" vertex="1" parent="1">
          <mxGeometry x="-30" y="-30" width="100" height="40" as="geometry" />
        </mxCell>
        <mxCell id="N0Mhtf19jp6nz9mz9Gu_-20" value="name_product" style="ellipse;whiteSpace=wrap;html=1;align=center;" vertex="1" parent="1">
          <mxGeometry x="30" y="190" width="100" height="40" as="geometry" />
        </mxCell>
        <mxCell id="N0Mhtf19jp6nz9mz9Gu_-21" value="price" style="ellipse;whiteSpace=wrap;html=1;align=center;" vertex="1" parent="1">
          <mxGeometry x="-120" y="170" width="100" height="40" as="geometry" />
        </mxCell>
        <mxCell id="N0Mhtf19jp6nz9mz9Gu_-22" value="" style="endArrow=none;html=1;rounded=0;" edge="1" parent="1" source="N0Mhtf19jp6nz9mz9Gu_-19" target="N0Mhtf19jp6nz9mz9Gu_-16">
          <mxGeometry relative="1" as="geometry">
            <mxPoint x="340" y="60" as="sourcePoint" />
            <mxPoint x="500" y="60" as="targetPoint" />
          </mxGeometry>
        </mxCell>
        <mxCell id="N0Mhtf19jp6nz9mz9Gu_-23" value="" style="endArrow=none;html=1;rounded=0;" edge="1" parent="1" source="N0Mhtf19jp6nz9mz9Gu_-20" target="N0Mhtf19jp6nz9mz9Gu_-16">
          <mxGeometry relative="1" as="geometry">
            <mxPoint x="380" y="130" as="sourcePoint" />
            <mxPoint x="540" y="130" as="targetPoint" />
          </mxGeometry>
        </mxCell>
        <mxCell id="N0Mhtf19jp6nz9mz9Gu_-24" value="" style="endArrow=none;html=1;rounded=0;" edge="1" parent="1" source="N0Mhtf19jp6nz9mz9Gu_-21" target="N0Mhtf19jp6nz9mz9Gu_-16">
          <mxGeometry relative="1" as="geometry">
            <mxPoint x="360" y="140" as="sourcePoint" />
            <mxPoint x="520" y="140" as="targetPoint" />
          </mxGeometry>
        </mxCell>
        <mxCell id="N0Mhtf19jp6nz9mz9Gu_-25" value="" style="endArrow=none;html=1;rounded=0;" edge="1" parent="1" source="N0Mhtf19jp6nz9mz9Gu_-16" target="N0Mhtf19jp6nz9mz9Gu_-26">
          <mxGeometry relative="1" as="geometry">
            <mxPoint x="470" y="100" as="sourcePoint" />
            <mxPoint x="630" y="100" as="targetPoint" />
          </mxGeometry>
        </mxCell>
        <mxCell id="N0Mhtf19jp6nz9mz9Gu_-26" value="number" style="ellipse;whiteSpace=wrap;html=1;align=center;" vertex="1" parent="1">
          <mxGeometry x="110" y="-80" width="100" height="40" as="geometry" />
        </mxCell>
        <mxCell id="N0Mhtf19jp6nz9mz9Gu_-28" value="confirm" style="shape=rhombus;perimeter=rhombusPerimeter;whiteSpace=wrap;html=1;align=center;fillColor=#60a917;fontColor=#ffffff;strokeColor=#2D7600;" vertex="1" parent="1">
          <mxGeometry x="215" y="70" width="120" height="60" as="geometry" />
        </mxCell>
        <mxCell id="N0Mhtf19jp6nz9mz9Gu_-29" value="" style="endArrow=none;html=1;rounded=0;" edge="1" parent="1" source="N0Mhtf19jp6nz9mz9Gu_-16" target="N0Mhtf19jp6nz9mz9Gu_-28">
          <mxGeometry relative="1" as="geometry">
            <mxPoint x="330" y="170" as="sourcePoint" />
            <mxPoint x="490" y="170" as="targetPoint" />
          </mxGeometry>
        </mxCell>
        <mxCell id="N0Mhtf19jp6nz9mz9Gu_-30" value="" style="endArrow=none;html=1;rounded=0;" edge="1" parent="1" source="VAm5EBniyMLqkMirTQOu-98" target="VAm5EBniyMLqkMirTQOu-1">
          <mxGeometry relative="1" as="geometry">
            <mxPoint x="480" y="160" as="sourcePoint" />
            <mxPoint x="640" y="160" as="targetPoint" />
          </mxGeometry>
        </mxCell>
      </root>
    </mxGraphModel>
  </diagram>
</mxfile>
